<mxfile host="app.diagrams.net" agent="Mozilla/5.0 (X11; Linux x86_64; rv:135.0) Gecko/20100101 Firefox/135.0" version="26.0.16">
  <diagram name="Page-1" id="as6VMQwiB93fmpBukN7v">
    <mxGraphModel dx="1420" dy="776" grid="1" gridSize="10" guides="1" tooltips="1" connect="1" arrows="1" fold="1" page="1" pageScale="1" pageWidth="850" pageHeight="1100" math="0" shadow="0">
      <root>
        <mxCell id="0" />
        <mxCell id="1" parent="0" />
        <mxCell id="9d7ZW36T2mL4Osqzuhdm-19" style="edgeStyle=orthogonalEdgeStyle;rounded=0;orthogonalLoop=1;jettySize=auto;html=1;exitX=0.5;exitY=1;exitDx=0;exitDy=0;entryX=0.5;entryY=0;entryDx=0;entryDy=0;" edge="1" parent="1" source="9d7ZW36T2mL4Osqzuhdm-1" target="9d7ZW36T2mL4Osqzuhdm-2">
          <mxGeometry relative="1" as="geometry" />
        </mxCell>
        <mxCell id="9d7ZW36T2mL4Osqzuhdm-1" value="BEGIN project polygon(Axis, Corners)" style="rounded=1;whiteSpace=wrap;html=1;" vertex="1" parent="1">
          <mxGeometry x="40" y="50" width="120" height="60" as="geometry" />
        </mxCell>
        <mxCell id="9d7ZW36T2mL4Osqzuhdm-4" style="edgeStyle=orthogonalEdgeStyle;rounded=0;orthogonalLoop=1;jettySize=auto;html=1;exitX=1;exitY=0.5;exitDx=0;exitDy=0;entryX=0;entryY=0.5;entryDx=0;entryDy=0;" edge="1" parent="1" source="9d7ZW36T2mL4Osqzuhdm-2" target="9d7ZW36T2mL4Osqzuhdm-3">
          <mxGeometry relative="1" as="geometry" />
        </mxCell>
        <mxCell id="9d7ZW36T2mL4Osqzuhdm-9" style="edgeStyle=orthogonalEdgeStyle;rounded=0;orthogonalLoop=1;jettySize=auto;html=1;exitX=0.5;exitY=1;exitDx=0;exitDy=0;entryX=0.5;entryY=0;entryDx=0;entryDy=0;" edge="1" parent="1" source="9d7ZW36T2mL4Osqzuhdm-2" target="9d7ZW36T2mL4Osqzuhdm-8">
          <mxGeometry relative="1" as="geometry" />
        </mxCell>
        <mxCell id="9d7ZW36T2mL4Osqzuhdm-2" value="Set dots to list comprehension" style="rounded=0;whiteSpace=wrap;html=1;" vertex="1" parent="1">
          <mxGeometry x="40" y="150" width="120" height="60" as="geometry" />
        </mxCell>
        <mxCell id="9d7ZW36T2mL4Osqzuhdm-3" value="Call dotproduct for each dot in dots" style="rounded=0;whiteSpace=wrap;html=1;" vertex="1" parent="1">
          <mxGeometry x="210" y="150" width="120" height="60" as="geometry" />
        </mxCell>
        <mxCell id="9d7ZW36T2mL4Osqzuhdm-5" style="edgeStyle=orthogonalEdgeStyle;rounded=0;orthogonalLoop=1;jettySize=auto;html=1;exitX=1;exitY=0.5;exitDx=0;exitDy=0;entryX=0.5;entryY=1;entryDx=0;entryDy=0;" edge="1" parent="1" source="9d7ZW36T2mL4Osqzuhdm-3" target="9d7ZW36T2mL4Osqzuhdm-3">
          <mxGeometry relative="1" as="geometry" />
        </mxCell>
        <mxCell id="9d7ZW36T2mL4Osqzuhdm-6" value="For all dots" style="edgeLabel;html=1;align=center;verticalAlign=middle;resizable=0;points=[];" vertex="1" connectable="0" parent="9d7ZW36T2mL4Osqzuhdm-5">
          <mxGeometry x="-0.3765" y="2" relative="1" as="geometry">
            <mxPoint as="offset" />
          </mxGeometry>
        </mxCell>
        <mxCell id="9d7ZW36T2mL4Osqzuhdm-7" value="Simplified list comprehension" style="text;html=1;align=center;verticalAlign=middle;resizable=0;points=[];autosize=1;strokeColor=none;fillColor=none;" vertex="1" parent="1">
          <mxGeometry x="180" y="120" width="180" height="30" as="geometry" />
        </mxCell>
        <mxCell id="9d7ZW36T2mL4Osqzuhdm-12" style="edgeStyle=orthogonalEdgeStyle;rounded=0;orthogonalLoop=1;jettySize=auto;html=1;exitX=0.5;exitY=1;exitDx=0;exitDy=0;entryX=0.5;entryY=0;entryDx=0;entryDy=0;" edge="1" parent="1" source="9d7ZW36T2mL4Osqzuhdm-8" target="9d7ZW36T2mL4Osqzuhdm-11">
          <mxGeometry relative="1" as="geometry" />
        </mxCell>
        <mxCell id="9d7ZW36T2mL4Osqzuhdm-8" value="Return min(dots), max(dots)" style="rounded=0;whiteSpace=wrap;html=1;" vertex="1" parent="1">
          <mxGeometry x="40" y="250" width="120" height="60" as="geometry" />
        </mxCell>
        <mxCell id="9d7ZW36T2mL4Osqzuhdm-11" value="END project polygon(Axis, Corners)" style="rounded=1;whiteSpace=wrap;html=1;" vertex="1" parent="1">
          <mxGeometry x="40" y="350" width="120" height="60" as="geometry" />
        </mxCell>
        <mxCell id="9d7ZW36T2mL4Osqzuhdm-16" style="edgeStyle=orthogonalEdgeStyle;rounded=0;orthogonalLoop=1;jettySize=auto;html=1;exitX=0.5;exitY=1;exitDx=0;exitDy=0;entryX=0.5;entryY=0;entryDx=0;entryDy=0;" edge="1" parent="1" source="9d7ZW36T2mL4Osqzuhdm-14" target="9d7ZW36T2mL4Osqzuhdm-15">
          <mxGeometry relative="1" as="geometry" />
        </mxCell>
        <mxCell id="9d7ZW36T2mL4Osqzuhdm-14" value="BEGIN overlap intervals(min_a, max_a, min_b, max_b)" style="rounded=1;whiteSpace=wrap;html=1;" vertex="1" parent="1">
          <mxGeometry x="470" y="50" width="180" height="60" as="geometry" />
        </mxCell>
        <mxCell id="9d7ZW36T2mL4Osqzuhdm-18" style="edgeStyle=orthogonalEdgeStyle;rounded=0;orthogonalLoop=1;jettySize=auto;html=1;exitX=0.5;exitY=1;exitDx=0;exitDy=0;entryX=0.5;entryY=0;entryDx=0;entryDy=0;" edge="1" parent="1" source="9d7ZW36T2mL4Osqzuhdm-15" target="9d7ZW36T2mL4Osqzuhdm-17">
          <mxGeometry relative="1" as="geometry" />
        </mxCell>
        <mxCell id="9d7ZW36T2mL4Osqzuhdm-15" value="Return min(max_a - max_b), max(min_a - min_b)" style="rounded=0;whiteSpace=wrap;html=1;" vertex="1" parent="1">
          <mxGeometry x="500" y="140" width="120" height="60" as="geometry" />
        </mxCell>
        <mxCell id="9d7ZW36T2mL4Osqzuhdm-17" value="END overlap intervals" style="rounded=1;whiteSpace=wrap;html=1;" vertex="1" parent="1">
          <mxGeometry x="470" y="240" width="180" height="60" as="geometry" />
        </mxCell>
        <mxCell id="9d7ZW36T2mL4Osqzuhdm-23" style="edgeStyle=orthogonalEdgeStyle;rounded=0;orthogonalLoop=1;jettySize=auto;html=1;exitX=0.5;exitY=1;exitDx=0;exitDy=0;entryX=0.5;entryY=0;entryDx=0;entryDy=0;" edge="1" parent="1" source="9d7ZW36T2mL4Osqzuhdm-20" target="9d7ZW36T2mL4Osqzuhdm-22">
          <mxGeometry relative="1" as="geometry" />
        </mxCell>
        <mxCell id="9d7ZW36T2mL4Osqzuhdm-20" value="BEGIN sat_collision(body_a, body_b)" style="rounded=1;whiteSpace=wrap;html=1;" vertex="1" parent="1">
          <mxGeometry x="320" y="380" width="180" height="60" as="geometry" />
        </mxCell>
        <mxCell id="9d7ZW36T2mL4Osqzuhdm-25" style="edgeStyle=orthogonalEdgeStyle;rounded=0;orthogonalLoop=1;jettySize=auto;html=1;exitX=0.5;exitY=1;exitDx=0;exitDy=0;entryX=0.5;entryY=0;entryDx=0;entryDy=0;" edge="1" parent="1" source="9d7ZW36T2mL4Osqzuhdm-22" target="9d7ZW36T2mL4Osqzuhdm-24">
          <mxGeometry relative="1" as="geometry" />
        </mxCell>
        <mxCell id="9d7ZW36T2mL4Osqzuhdm-22" value="Set corners_a to body_a&#39;s get_vertices method" style="shape=process;whiteSpace=wrap;html=1;backgroundOutline=1;" vertex="1" parent="1">
          <mxGeometry x="325" y="470" width="170" height="60" as="geometry" />
        </mxCell>
        <mxCell id="9d7ZW36T2mL4Osqzuhdm-27" style="edgeStyle=orthogonalEdgeStyle;rounded=0;orthogonalLoop=1;jettySize=auto;html=1;exitX=0.5;exitY=1;exitDx=0;exitDy=0;entryX=0.5;entryY=0;entryDx=0;entryDy=0;" edge="1" parent="1" source="9d7ZW36T2mL4Osqzuhdm-24" target="9d7ZW36T2mL4Osqzuhdm-26">
          <mxGeometry relative="1" as="geometry" />
        </mxCell>
        <mxCell id="9d7ZW36T2mL4Osqzuhdm-24" value="Set corners_b to body_b&#39;s get_vertices method" style="shape=process;whiteSpace=wrap;html=1;backgroundOutline=1;" vertex="1" parent="1">
          <mxGeometry x="325" y="550" width="170" height="60" as="geometry" />
        </mxCell>
        <mxCell id="9d7ZW36T2mL4Osqzuhdm-29" style="edgeStyle=orthogonalEdgeStyle;rounded=0;orthogonalLoop=1;jettySize=auto;html=1;exitX=0.5;exitY=1;exitDx=0;exitDy=0;entryX=0.5;entryY=0;entryDx=0;entryDy=0;" edge="1" parent="1" source="9d7ZW36T2mL4Osqzuhdm-26" target="9d7ZW36T2mL4Osqzuhdm-28">
          <mxGeometry relative="1" as="geometry" />
        </mxCell>
        <mxCell id="9d7ZW36T2mL4Osqzuhdm-26" value="Set axes to empty list" style="rounded=0;whiteSpace=wrap;html=1;" vertex="1" parent="1">
          <mxGeometry x="350" y="640" width="120" height="60" as="geometry" />
        </mxCell>
        <mxCell id="9d7ZW36T2mL4Osqzuhdm-35" style="edgeStyle=orthogonalEdgeStyle;rounded=0;orthogonalLoop=1;jettySize=auto;html=1;exitX=0.5;exitY=1;exitDx=0;exitDy=0;entryX=0.5;entryY=0;entryDx=0;entryDy=0;" edge="1" parent="1" source="9d7ZW36T2mL4Osqzuhdm-28" target="9d7ZW36T2mL4Osqzuhdm-34">
          <mxGeometry relative="1" as="geometry" />
        </mxCell>
        <mxCell id="9d7ZW36T2mL4Osqzuhdm-48" value="True" style="edgeLabel;html=1;align=center;verticalAlign=middle;resizable=0;points=[];" vertex="1" connectable="0" parent="9d7ZW36T2mL4Osqzuhdm-35">
          <mxGeometry x="0.5889" y="-2" relative="1" as="geometry">
            <mxPoint as="offset" />
          </mxGeometry>
        </mxCell>
        <mxCell id="9d7ZW36T2mL4Osqzuhdm-28" value="For poly in corners_a and corners_b" style="rounded=0;whiteSpace=wrap;html=1;" vertex="1" parent="1">
          <mxGeometry x="350" y="740" width="120" height="60" as="geometry" />
        </mxCell>
        <mxCell id="9d7ZW36T2mL4Osqzuhdm-33" style="edgeStyle=orthogonalEdgeStyle;rounded=0;orthogonalLoop=1;jettySize=auto;html=1;exitX=0.5;exitY=1;exitDx=0;exitDy=0;entryX=0.5;entryY=0;entryDx=0;entryDy=0;" edge="1" parent="1" source="9d7ZW36T2mL4Osqzuhdm-30" target="9d7ZW36T2mL4Osqzuhdm-32">
          <mxGeometry relative="1" as="geometry" />
        </mxCell>
        <mxCell id="9d7ZW36T2mL4Osqzuhdm-30" value="Enumerate poly with i, vector" style="rounded=0;whiteSpace=wrap;html=1;" vertex="1" parent="1">
          <mxGeometry x="350" y="1070" width="120" height="60" as="geometry" />
        </mxCell>
        <mxCell id="9d7ZW36T2mL4Osqzuhdm-39" style="edgeStyle=orthogonalEdgeStyle;rounded=0;orthogonalLoop=1;jettySize=auto;html=1;exitX=0.5;exitY=1;exitDx=0;exitDy=0;entryX=0.5;entryY=0;entryDx=0;entryDy=0;" edge="1" parent="1" source="9d7ZW36T2mL4Osqzuhdm-32" target="9d7ZW36T2mL4Osqzuhdm-38">
          <mxGeometry relative="1" as="geometry" />
        </mxCell>
        <mxCell id="9d7ZW36T2mL4Osqzuhdm-32" value="Set edge to element in poly at i + 1 modulo poly_len " style="rounded=0;whiteSpace=wrap;html=1;" vertex="1" parent="1">
          <mxGeometry x="350" y="1160" width="120" height="60" as="geometry" />
        </mxCell>
        <mxCell id="9d7ZW36T2mL4Osqzuhdm-36" style="edgeStyle=orthogonalEdgeStyle;rounded=0;orthogonalLoop=1;jettySize=auto;html=1;exitX=0.5;exitY=1;exitDx=0;exitDy=0;entryX=0.5;entryY=0;entryDx=0;entryDy=0;" edge="1" parent="1" source="9d7ZW36T2mL4Osqzuhdm-34" target="9d7ZW36T2mL4Osqzuhdm-30">
          <mxGeometry relative="1" as="geometry" />
        </mxCell>
        <mxCell id="9d7ZW36T2mL4Osqzuhdm-34" value="&lt;div&gt;Set poly_len to length of poly&lt;/div&gt;" style="rounded=0;whiteSpace=wrap;html=1;" vertex="1" parent="1">
          <mxGeometry x="350" y="980" width="120" height="60" as="geometry" />
        </mxCell>
        <mxCell id="9d7ZW36T2mL4Osqzuhdm-41" style="edgeStyle=orthogonalEdgeStyle;rounded=0;orthogonalLoop=1;jettySize=auto;html=1;exitX=0.5;exitY=1;exitDx=0;exitDy=0;entryX=0.5;entryY=0;entryDx=0;entryDy=0;" edge="1" parent="1" source="9d7ZW36T2mL4Osqzuhdm-38" target="9d7ZW36T2mL4Osqzuhdm-40">
          <mxGeometry relative="1" as="geometry" />
        </mxCell>
        <mxCell id="9d7ZW36T2mL4Osqzuhdm-38" value="Call perpendicular and normalized on edge and append to axes" style="shape=process;whiteSpace=wrap;html=1;backgroundOutline=1;" vertex="1" parent="1">
          <mxGeometry x="330" y="1250" width="160" height="60" as="geometry" />
        </mxCell>
        <mxCell id="9d7ZW36T2mL4Osqzuhdm-42" style="edgeStyle=orthogonalEdgeStyle;rounded=0;orthogonalLoop=1;jettySize=auto;html=1;exitX=1;exitY=0.5;exitDx=0;exitDy=0;entryX=1;entryY=0.5;entryDx=0;entryDy=0;" edge="1" parent="1" source="9d7ZW36T2mL4Osqzuhdm-40" target="9d7ZW36T2mL4Osqzuhdm-30">
          <mxGeometry relative="1" as="geometry">
            <Array as="points">
              <mxPoint x="475" y="1340" />
              <mxPoint x="510" y="1340" />
              <mxPoint x="510" y="1020" />
              <mxPoint x="470" y="1020" />
            </Array>
          </mxGeometry>
        </mxCell>
        <mxCell id="9d7ZW36T2mL4Osqzuhdm-43" value="True" style="edgeLabel;html=1;align=center;verticalAlign=middle;resizable=0;points=[];" vertex="1" connectable="0" parent="9d7ZW36T2mL4Osqzuhdm-42">
          <mxGeometry x="-0.7846" y="-1" relative="1" as="geometry">
            <mxPoint as="offset" />
          </mxGeometry>
        </mxCell>
        <mxCell id="9d7ZW36T2mL4Osqzuhdm-44" style="edgeStyle=orthogonalEdgeStyle;rounded=0;orthogonalLoop=1;jettySize=auto;html=1;exitX=0.5;exitY=1;exitDx=0;exitDy=0;entryX=1;entryY=0.5;entryDx=0;entryDy=0;" edge="1" parent="1" source="9d7ZW36T2mL4Osqzuhdm-40" target="9d7ZW36T2mL4Osqzuhdm-28">
          <mxGeometry relative="1" as="geometry">
            <Array as="points">
              <mxPoint x="410" y="1430" />
              <mxPoint x="520" y="1430" />
              <mxPoint x="520" y="770" />
            </Array>
          </mxGeometry>
        </mxCell>
        <mxCell id="9d7ZW36T2mL4Osqzuhdm-45" value="False" style="edgeLabel;html=1;align=center;verticalAlign=middle;resizable=0;points=[];" vertex="1" connectable="0" parent="9d7ZW36T2mL4Osqzuhdm-44">
          <mxGeometry x="-0.82" y="1" relative="1" as="geometry">
            <mxPoint as="offset" />
          </mxGeometry>
        </mxCell>
        <mxCell id="9d7ZW36T2mL4Osqzuhdm-40" value="More vector in poly?" style="rhombus;whiteSpace=wrap;html=1;" vertex="1" parent="1">
          <mxGeometry x="345" y="1340" width="130" height="80" as="geometry" />
        </mxCell>
        <mxCell id="9d7ZW36T2mL4Osqzuhdm-50" style="edgeStyle=orthogonalEdgeStyle;rounded=0;orthogonalLoop=1;jettySize=auto;html=1;exitX=0;exitY=0.5;exitDx=0;exitDy=0;entryX=0;entryY=0.5;entryDx=0;entryDy=0;" edge="1" parent="1" source="9d7ZW36T2mL4Osqzuhdm-46" target="9d7ZW36T2mL4Osqzuhdm-49">
          <mxGeometry relative="1" as="geometry" />
        </mxCell>
        <mxCell id="9d7ZW36T2mL4Osqzuhdm-51" value="False" style="edgeLabel;html=1;align=center;verticalAlign=middle;resizable=0;points=[];" vertex="1" connectable="0" parent="9d7ZW36T2mL4Osqzuhdm-50">
          <mxGeometry x="-0.8748" y="-1" relative="1" as="geometry">
            <mxPoint as="offset" />
          </mxGeometry>
        </mxCell>
        <mxCell id="9d7ZW36T2mL4Osqzuhdm-46" value="More poly in corners?" style="rhombus;whiteSpace=wrap;html=1;" vertex="1" parent="1">
          <mxGeometry x="345" y="840" width="130" height="80" as="geometry" />
        </mxCell>
        <mxCell id="9d7ZW36T2mL4Osqzuhdm-49" value="End loop" style="ellipse;whiteSpace=wrap;html=1;" vertex="1" parent="1">
          <mxGeometry x="350" y="1450" width="120" height="80" as="geometry" />
        </mxCell>
      </root>
    </mxGraphModel>
  </diagram>
</mxfile>
